# xmcd
#
# Track frame offsets: 
#        150
#        14611
#        27351
#        39208
#        51256
#        64832
#        74000
#        86931
#        100825
#        121114
#
# Disc length: 1804 seconds
#
# Revision: 0
# Processed by: cddbd v1.5.2PL0 Copyright (c) Steve Scherf et al.
# Submitted via: ExactAudioCopy v1.3
#
DISCID=88070a0a
DTITLE=Joakim Tinderholt - Hold On
DYEAR=2017
DGENRE=Blues
TTITLE0=Trouble up the road
TTITLE1=Anything is better than nothing
TTITLE2=Jungle Bo
TTITLE3=Farmer John
TTITLE4=What about love
TTITLE5=Hold on to me
TTITLE6=Sweet baby of mine
TTITLE7=Number 9 train
TTITLE8=The poor side of town
TTITLE9=I quit
EXTD=
EXTT0=
EXTT1=
EXTT2=
EXTT3=
EXTT4=
EXTT5=
EXTT6=
EXTT7=
EXTT8=
EXTT9=
PLAYORDER=
